<svg width="21" height="20" viewBox="0 0 21 20" fill="none" xmlns="http://www.w3.org/2000/svg">
<g id="fluent:arrow-exit-20-filled">
<path id="Vector" d="M13.25 17.5C13.4489 17.5 13.6397 17.421 13.7803 17.2803C13.921 17.1397 14 16.9489 14 16.75C14 16.5511 13.921 16.3603 13.7803 16.2197C13.6397 16.079 13.4489 16 13.25 16H7C6.46957 16 5.96086 15.7893 5.58579 15.4142C5.21071 15.0391 5 14.5304 5 14V6C5 5.46957 5.21071 4.96086 5.58579 4.58579C5.96086 4.21071 6.46957 4 7 4H13.25C13.4489 4 13.6397 3.92098 13.7803 3.78033C13.921 3.63968 14 3.44891 14 3.25C14 3.05109 13.921 2.86032 13.7803 2.71967C13.6397 2.57902 13.4489 2.5 13.25 2.5H7C6.07174 2.5 5.1815 2.86875 4.52513 3.52513C3.86875 4.1815 3.5 5.07174 3.5 6V14C3.5 14.9283 3.86875 15.8185 4.52513 16.4749C5.1815 17.1313 6.07174 17.5 7 17.5H13.25Z" fill="white"/>
<path id="Vector_2" d="M11.5096 6.04629C11.602 6.08036 11.6868 6.13231 11.7592 6.19917C11.8315 6.26601 11.89 6.34544 11.9313 6.43489C11.9726 6.52433 11.9958 6.62104 11.9997 6.71947C12.0036 6.81791 11.9881 6.91614 11.954 7.00858C11.92 7.10101 11.868 7.18582 11.8012 7.25817L9.96317 9.24917H17.7502C17.9491 9.24917 18.1398 9.32819 18.2805 9.46884C18.4211 9.60949 18.5002 9.80026 18.5002 9.99917C18.5002 10.1981 18.4211 10.3888 18.2805 10.5295C18.1398 10.6702 17.9491 10.7492 17.7502 10.7492H9.96217L11.8002 12.7402C11.9353 12.8862 12.0069 13.0799 11.9992 13.2787C11.9915 13.4775 11.9052 13.665 11.7592 13.8002C11.6132 13.9353 11.4195 14.0069 11.2207 13.9992C11.0219 13.9915 10.8343 13.9052 10.6992 13.7592L7.69917 10.5092C7.57112 10.3706 7.5 10.1888 7.5 10.0002C7.5 9.81149 7.57112 9.62975 7.69917 9.49117L10.6992 6.24117C10.766 6.1688 10.8464 6.1103 10.9359 6.06902C11.0253 6.02774 11.122 6.00449 11.2205 6.00059C11.3189 5.99669 11.4171 6.01222 11.5096 6.04629Z" fill="white"/>
</g>
</svg>
