<svg width="23" height="21" viewBox="0 0 23 21" fill="none" xmlns="http://www.w3.org/2000/svg">
<path d="M18.347 12.7222C18.347 13.4893 17.7252 14.1111 16.9581 14.1111C16.191 14.1111 15.5692 13.4893 15.5692 12.7222C15.5692 11.9551 16.191 11.3333 16.9581 11.3333C17.7252 11.3333 18.347 11.9551 18.347 12.7222Z" fill="#101B17"/>
<path fill-rule="evenodd" clip-rule="evenodd" d="M3.06923 0.5C1.38169 0.5 0.0136719 1.86802 0.0136719 3.55556V18.2778C0.0136719 19.5051 1.00859 20.5 2.23589 20.5H20.0137C21.241 20.5 22.2359 19.5051 22.2359 18.2778V7.16667C22.2359 5.93937 21.241 4.94444 20.0137 4.94444V2.72222C20.0137 1.49492 19.0188 0.5 17.7914 0.5H3.06923ZM18.347 2.72222C18.347 2.4154 18.0982 2.16667 17.7914 2.16667H3.06923C2.30216 2.16667 1.68034 2.78849 1.68034 3.55556C1.68034 4.32262 2.30216 4.94444 3.06923 4.94444H18.347V2.72222ZM1.68034 6.27794C2.09704 6.49096 2.56911 6.61111 3.06923 6.61111H20.0137C20.3204 6.61111 20.5692 6.85984 20.5692 7.16667V18.2778C20.5692 18.5846 20.3204 18.8333 20.0137 18.8333H2.23589C1.92907 18.8333 1.68034 18.5846 1.68034 18.2778V6.27794Z" fill="#101B17"/>
</svg>
