<svg width="19" height="25" viewBox="0 0 19 25" fill="none" xmlns="http://www.w3.org/2000/svg">
<path fill-rule="evenodd" clip-rule="evenodd" d="M5.54167 0.5625C4.22994 0.5625 3.16667 1.71372 3.16667 3.13393V3.99107H2.375C1.06328 3.99107 0 5.14229 0 6.5625V21.9911C0 23.4113 1.06328 24.5625 2.375 24.5625H13.4583C14.7701 24.5625 15.8333 23.4113 15.8333 21.9911V21.1339H16.625C17.9367 21.1339 19 19.9827 19 18.5625V6.5625C19 6.33521 18.9166 6.11709 18.7682 5.95638L14.0182 0.81352C13.8697 0.652809 13.6683 0.5625 13.4583 0.5625H5.54167ZM4.75 3.13393C4.75 2.66058 5.10448 2.27679 5.54167 2.27679H12.6667V4.84821C12.6667 6.26843 13.7299 7.41964 15.0417 7.41964H17.4167V18.5625C17.4167 19.0358 17.0622 19.4196 16.625 19.4196H5.54167C5.10448 19.4196 4.75 19.0358 4.75 18.5625V3.13393ZM16.297 5.70536L14.25 3.48903V4.84821C14.25 5.32156 14.6045 5.70536 15.0417 5.70536H16.297ZM14.25 21.1339H5.54167C4.22994 21.1339 3.16667 19.9827 3.16667 18.5625V5.70536H2.375C1.93781 5.70536 1.58333 6.08916 1.58333 6.5625V21.9911C1.58333 22.4644 1.93781 22.8482 2.375 22.8482H13.4583C13.8955 22.8482 14.25 22.4644 14.25 21.9911V21.1339Z" fill="#101B17"/>
</svg>
