<svg width="14" height="14" viewBox="0 0 14 14" fill="none" xmlns="http://www.w3.org/2000/svg">
<path fill-rule="evenodd" clip-rule="evenodd" d="M13.5548 4.24508L4.24508 13.5548C3.96003 13.8399 3.57342 14 3.17031 14H0.759978C0.340254 14 0 13.6597 0 13.24V10.8297C0 10.4266 0.160138 10.04 0.445185 9.75492L9.75492 0.445185C10.3485 -0.148395 11.3109 -0.148395 11.9045 0.445185L13.5548 2.09553C14.1484 2.68911 14.1484 3.6515 13.5548 4.24508ZM8.65737 3.15489L10.8451 5.34263L3.439 12.7487C3.36774 12.82 3.27109 12.86 3.17031 12.86H1.13997V10.8297C1.13997 10.7289 1.18 10.6323 1.25126 10.561L8.65737 3.15489ZM9.46345 2.34882L11.6512 4.53655L12.7487 3.439C12.8971 3.2906 12.8971 3.05001 12.7487 2.90161L11.0984 1.25126C10.95 1.10287 10.7094 1.10287 10.561 1.25126L9.46345 2.34882Z" fill="#101B17"/>
</svg>
