<svg width="19" height="19" viewBox="0 0 19 19" fill="none" xmlns="http://www.w3.org/2000/svg">
<path fill-rule="evenodd" clip-rule="evenodd" d="M4.73829 2.19794C4.67372 2.11488 4.59222 2.04651 4.4992 1.99737C4.40618 1.94823 4.30376 1.91945 4.19876 1.91293C4.09376 1.90642 3.98857 1.92231 3.89019 1.95957C3.79181 1.99683 3.70248 2.0546 3.62813 2.12903L2.49719 3.26107C1.96891 3.79044 1.77423 4.53966 2.00501 5.197C2.96285 7.9178 4.52095 10.388 6.56376 12.4245C8.60024 14.4673 11.0705 16.0254 13.7913 16.9833C14.4486 17.214 15.1978 17.0193 15.7272 16.4911L16.8581 15.3601C16.9326 15.2858 16.9903 15.1965 17.0276 15.0981C17.0648 14.9997 17.0807 14.8945 17.0742 14.7895C17.0677 14.6845 17.0389 14.5821 16.9898 14.4891C16.9407 14.396 16.8723 14.3145 16.7892 14.25L14.2659 12.2878C14.1772 12.219 14.074 12.1712 13.9641 12.1481C13.8542 12.125 13.7405 12.1271 13.6316 12.1543L11.2363 12.7526C10.9165 12.8325 10.5816 12.8283 10.264 12.7403C9.94636 12.6523 9.65695 12.4836 9.42391 12.2506L6.73766 9.56325C6.50444 9.33033 6.33552 9.04097 6.24735 8.72336C6.15918 8.40576 6.15476 8.07073 6.23454 7.75091L6.83391 5.3556C6.86116 5.24665 6.8633 5.13295 6.84018 5.02306C6.81707 4.91316 6.7693 4.80996 6.70048 4.72122L4.73829 2.19794ZM2.80235 1.30435C2.99375 1.11288 3.22369 0.964332 3.47691 0.868554C3.73012 0.772775 4.00082 0.731961 4.27102 0.748823C4.54122 0.765684 4.80474 0.839835 5.04408 0.966352C5.28342 1.09287 5.49311 1.26886 5.65923 1.48263L7.62141 4.00482C7.98126 4.46747 8.10813 5.07013 7.96594 5.63888L7.36766 8.03419C7.33673 8.15825 7.3384 8.28821 7.37251 8.41144C7.40663 8.53466 7.47202 8.64698 7.56235 8.73747L10.2497 11.4248C10.3403 11.5153 10.4528 11.5808 10.5762 11.6149C10.6997 11.6491 10.8298 11.6506 10.9541 11.6195L13.3483 11.0212C13.629 10.951 13.9219 10.9456 14.205 11.0053C14.4881 11.065 14.7539 11.1882 14.9824 11.3658L17.5045 13.3279C18.4113 14.0334 18.4944 15.3733 17.6828 16.1837L16.5519 17.3147C15.7425 18.124 14.5328 18.4795 13.4052 18.0825C10.519 17.067 7.89843 15.4146 5.73798 13.2481C3.57157 11.088 1.91927 8.46782 0.903601 5.582C0.507664 4.45544 0.863132 3.24466 1.67251 2.43528L2.80344 1.30435H2.80235Z" fill="#101B17"/>
</svg>
