<svg width="20" height="21" viewBox="0 0 20 21" fill="none" xmlns="http://www.w3.org/2000/svg">
<path d="M8.06069 9.0001C7.76775 8.7072 7.29288 8.7072 6.99999 9.0001C6.70709 9.2929 6.70709 9.7678 6.99999 10.0607L8.93929 12.0001L7 13.9394C6.7071 14.2323 6.7071 14.7072 7 15.0001C7.29289 15.293 7.76776 15.293 8.06069 15.0001L9.99999 13.0607L11.9393 15.0001C12.2322 15.293 12.7071 15.293 13 15.0001C13.2929 14.7072 13.2929 14.2323 13 13.9394L11.0607 12.0001L13 10.0607C13.2929 9.7678 13.2929 9.2929 13 9.0001C12.7071 8.7072 12.2322 8.7072 11.9393 9.0001L9.99999 10.9394L8.06069 9.0001Z" fill="white"/>
<path fill-rule="evenodd" clip-rule="evenodd" d="M14.5 3.5V2C14.5 0.89543 13.6046 0 12.5 0H7.5C6.39543 0 5.5 0.89543 5.5 2V3.5H0.75C0.33579 3.5 0 3.83579 0 4.25C0 4.66421 0.33579 5 0.75 5H2.08824L2.88926 18.6174C2.95145 19.6746 3.82686 20.5 4.88581 20.5H15.1142C16.1731 20.5 17.0486 19.6746 17.1107 18.6174L17.9118 5H19.25C19.6642 5 20 4.66421 20 4.25C20 3.83579 19.6642 3.5 19.25 3.5H14.5ZM12.5 1.5H7.5C7.22386 1.5 7 1.72386 7 2V3.5H13V2C13 1.72386 12.7761 1.5 12.5 1.5ZM16.4092 5H3.59083L4.38667 18.5294C4.40222 18.7936 4.62107 19 4.88581 19H15.1142C15.3789 19 15.5978 18.7936 15.6133 18.5294L16.4092 5Z" fill="white"/>
</svg>
