<svg width="22" height="23" viewBox="0 0 22 23" fill="none" xmlns="http://www.w3.org/2000/svg">
<path d="M13.4444 22.5615H8.55556C8.10741 22.5615 7.74074 22.1855 7.74074 21.7259V20.3472C7.74074 20.0965 7.57778 20.0129 7.4963 19.9711C7.41481 19.9294 7.21111 19.8876 7.04815 20.0547L6.11111 21.0156C5.78519 21.3499 5.2963 21.3499 4.97037 21.0156L1.50741 17.4643C1.18148 17.1301 1.18148 16.6287 1.50741 16.2944L2.44444 15.3335C2.60741 15.1664 2.56667 14.9575 2.52593 14.8739C2.48519 14.7903 2.4037 14.6232 2.15926 14.6232H0.814815C0.366667 14.6232 0 14.2472 0 13.7876V8.77393C0 8.31434 0.366667 7.93832 0.814815 7.93832H2.15926C2.4037 7.93832 2.48519 7.77119 2.52593 7.68763C2.56667 7.60407 2.60741 7.39517 2.44444 7.22805L1.50741 6.26709C1.18148 5.93285 1.18148 5.43148 1.50741 5.09723L4.97037 1.54588C5.2963 1.21164 5.78519 1.21164 6.11111 1.54588L7.04815 2.50684C7.21111 2.67396 7.41481 2.63218 7.4963 2.5904C7.57778 2.54862 7.74074 2.46506 7.74074 2.21437V0.835612C7.74074 0.376026 8.10741 0 8.55556 0H13.4444C13.8926 0 14.2593 0.376026 14.2593 0.835612V2.21437C14.2593 2.46506 14.4222 2.54862 14.5037 2.5904C14.5852 2.63218 14.7889 2.67396 14.9519 2.50684L15.8889 1.54588C16.2148 1.21164 16.7037 1.21164 17.0296 1.54588L20.4926 5.09723C20.8185 5.43148 20.8185 5.93285 20.4926 6.26709L19.5556 7.22805C19.3926 7.39517 19.4333 7.60407 19.4741 7.68763C19.5148 7.77119 19.5963 7.93832 19.8407 7.93832H21.1852C21.6333 7.93832 22 8.31434 22 8.77393V10.863C22 11.3225 21.6333 11.6986 21.1852 11.6986C20.737 11.6986 20.3704 11.3225 20.3704 10.863V9.60954H19.8407C19.0259 9.60954 18.2926 9.10817 17.9667 8.31434C17.6407 7.52051 17.8037 6.64312 18.4148 6.05819L18.7815 5.68216L16.4593 3.30067L16.0926 3.67669C15.5222 4.26162 14.6259 4.47053 13.8926 4.13628C13.1185 3.80204 12.6296 3.04998 12.6296 2.21437V1.67122H9.37037V2.21437C9.37037 3.04998 8.88148 3.80204 8.10741 4.13628C7.33333 4.47053 6.47778 4.3034 5.90741 3.67669L5.54074 3.30067L3.21852 5.68216L3.58519 6.05819C4.15556 6.64312 4.35926 7.56229 4.03333 8.31434C3.70741 9.06639 2.97407 9.60954 2.15926 9.60954H1.62963V12.952H2.15926C2.97407 12.952 3.70741 13.4534 4.03333 14.2472C4.35926 15.041 4.1963 15.9184 3.58519 16.5033L3.21852 16.8794L5.54074 19.2609L5.90741 18.8848C6.47778 18.2999 7.37407 18.091 8.10741 18.4253C8.84074 18.7595 9.37037 19.5115 9.37037 20.3472V20.8903H12.6296V20.3472C12.6296 19.5115 13.1185 18.7595 13.8926 18.4253C14.6667 18.091 15.5222 18.2581 16.0926 18.8848L16.4593 19.2609L18.7815 16.8794L18.4148 16.5033C17.8444 15.9184 17.6407 14.9992 17.9667 14.2472C18.2926 13.4951 19.0259 12.952 19.8407 12.952H21.1852C21.6333 12.952 22 13.328 22 13.7876C22 14.2472 21.6333 14.6232 21.1852 14.6232H19.8407C19.5963 14.6232 19.5148 14.7903 19.4741 14.8739C19.4333 14.9575 19.3926 15.1664 19.5556 15.3335L20.4926 16.2944C20.8185 16.6287 20.8185 17.1301 20.4926 17.4643L17.0296 21.0156C16.7037 21.3499 16.2148 21.3499 15.8889 21.0156L14.9519 20.0547C14.7889 19.8876 14.5852 19.9294 14.5037 19.9711C14.4222 20.0129 14.2593 20.0965 14.2593 20.3472V21.7259C14.2593 22.1855 13.8926 22.5615 13.4444 22.5615ZM16.7037 11.2808C16.7037 8.06366 14.137 5.43148 11 5.43148C9.04444 5.43148 7.25185 6.43421 6.19259 8.10544C5.94815 8.48146 6.07037 9.02461 6.43704 9.2753C6.8037 9.52598 7.33333 9.40064 7.57778 9.02461C8.35185 7.81297 9.61481 7.1027 11 7.1027C13.2407 7.1027 15.0741 8.98283 15.0741 11.2808C15.0741 13.5787 13.2407 15.4588 11 15.4588C8.75926 15.4588 6.92593 13.5787 6.92593 11.2808C6.92593 10.8212 6.55926 10.4452 6.11111 10.4452C5.66296 10.4452 5.2963 10.8212 5.2963 11.2808C5.2963 14.4979 7.86296 17.1301 11 17.1301C14.137 17.1301 16.7037 14.4979 16.7037 11.2808Z" fill="#101B17"/>
</svg>
