<svg width="25" height="21" viewBox="0 0 25 21" fill="none" xmlns="http://www.w3.org/2000/svg">
<path d="M13.375 8.25C14.008 8.25 14.635 8.256 15.277 8.487C15.8965 8.709 16.582 9.1635 17.251 10.167C17.3057 10.2489 17.3759 10.3193 17.4578 10.3741C17.5397 10.4289 17.6315 10.467 17.7281 10.4863C17.8247 10.5056 17.9241 10.5057 18.0208 10.4865C18.1174 10.4674 18.2093 10.4294 18.2913 10.3748C18.3732 10.3201 18.4436 10.2498 18.4984 10.168C18.5531 10.0861 18.5913 9.99425 18.6106 9.89765C18.6299 9.80106 18.6299 9.7016 18.6108 9.60498C18.5917 9.50835 18.5537 9.41644 18.499 9.3345C17.6665 8.0865 16.729 7.4145 15.784 7.0755C14.8825 6.75 14.02 6.75 13.405 6.75H13.375C13.1761 6.75 12.9853 6.82902 12.8447 6.96967C12.704 7.11032 12.625 7.30109 12.625 7.5C12.625 7.69891 12.704 7.88968 12.8447 8.03033C12.9853 8.17098 13.1761 8.25 13.375 8.25ZM9.625 3V4.185C5.2885 5.475 2.125 9.4935 2.125 14.25C2.125 14.4489 2.20402 14.6397 2.34467 14.7803C2.48532 14.921 2.67609 15 2.875 15H22.375C22.5739 15 22.7647 14.921 22.9053 14.7803C23.046 14.6397 23.125 14.4489 23.125 14.25C23.1249 11.9885 22.3949 9.78748 21.0436 7.9741C19.6924 6.16072 17.792 4.83183 15.625 4.185V3C15.625 2.20435 15.3089 1.44129 14.7463 0.87868C14.1837 0.31607 13.4206 0 12.625 0C11.8294 0 11.0663 0.31607 10.5037 0.87868C9.94107 1.44129 9.625 2.20435 9.625 3ZM12.625 1.5C13.0228 1.5 13.4044 1.65804 13.6857 1.93934C13.967 2.22064 14.125 2.60218 14.125 3V3.855C13.1301 3.71264 12.1199 3.71264 11.125 3.855V3C11.125 2.60218 11.283 2.22064 11.5643 1.93934C11.8456 1.65804 12.2272 1.5 12.625 1.5ZM12.625 5.25C14.8823 5.24967 17.0574 6.09763 18.7189 7.62574C20.3803 9.15384 21.4069 11.2505 21.595 13.5H3.655C3.84311 11.2505 4.86968 9.15384 6.53115 7.62574C8.19262 6.09763 10.3677 5.24967 12.625 5.25ZM2.875 16.5C2.27826 16.5 1.70597 16.7371 1.28401 17.159C0.862053 17.581 0.625 18.1533 0.625 18.75C0.625 19.3467 0.862053 19.919 1.28401 20.341C1.70597 20.7629 2.27826 21 2.875 21H22.375C22.9717 21 23.544 20.7629 23.966 20.341C24.3879 19.919 24.625 19.3467 24.625 18.75C24.625 18.1533 24.3879 17.581 23.966 17.159C23.544 16.7371 22.9717 16.5 22.375 16.5H2.875ZM2.125 18.75C2.125 18.5511 2.20402 18.3603 2.34467 18.2197C2.48532 18.079 2.67609 18 2.875 18H22.375C22.5739 18 22.7647 18.079 22.9053 18.2197C23.046 18.3603 23.125 18.5511 23.125 18.75C23.125 18.9489 23.046 19.1397 22.9053 19.2803C22.7647 19.421 22.5739 19.5 22.375 19.5H2.875C2.67609 19.5 2.48532 19.421 2.34467 19.2803C2.20402 19.1397 2.125 18.9489 2.125 18.75Z" fill="#101B17"/>
</svg>
