<svg width="19" height="21" viewBox="0 0 19 21" fill="none" xmlns="http://www.w3.org/2000/svg">
<path fill-rule="evenodd" clip-rule="evenodd" d="M5.93799 17.0854H1.71271C0.97391 17.0854 0.375 16.5011 0.375 15.7803V14.9286C0.375 14.4355 0.57577 13.9626 0.93314 13.614C1.85635 12.7134 2.375 11.4917 2.375 10.218V7.32927C2.375 3.55757 5.50901 0.5 9.375 0.5C13.241 0.5 16.375 3.55757 16.375 7.32927V10.218C16.375 11.4917 16.8937 12.7134 17.8169 13.614C18.1742 13.9626 18.375 14.4355 18.375 14.9286V15.7803C18.375 16.5011 17.7761 17.0854 17.0373 17.0854H12.812C12.812 17.4332 12.8004 18.0964 12.4419 18.7315C11.8484 19.7825 10.6986 20.5 9.375 20.5C8.0513 20.5 6.90155 19.7825 6.30811 18.7315C5.94954 18.0964 5.93799 17.4332 5.93799 17.0854ZM16.7562 14.6488C16.8323 14.723 16.875 14.8237 16.875 14.9286V15.622H1.875V14.9286C1.875 14.8237 1.91773 14.723 1.9938 14.6488C3.19831 13.4737 3.875 11.8798 3.875 10.218V7.32927C3.875 4.36578 6.33744 1.96341 9.375 1.96341C12.4126 1.96341 14.875 4.36578 14.875 7.32927V10.218C14.875 11.8798 15.5517 13.4737 16.7562 14.6488ZM11.312 17.0854H7.438C7.438 17.4093 7.4618 17.7418 7.622 18.0255C7.7337 18.2234 7.8797 18.4004 8.0521 18.5488C8.4046 18.8524 8.8678 19.0366 9.375 19.0366C9.8822 19.0366 10.3453 18.8524 10.6979 18.5488C10.8703 18.4004 11.0162 18.2234 11.128 18.0255C11.2882 17.7418 11.312 17.4093 11.312 17.0854Z" fill="#101B17"/>
</svg>
