<svg width="21" height="21" viewBox="0 0 21 21" fill="none" xmlns="http://www.w3.org/2000/svg">
<path fill-rule="evenodd" clip-rule="evenodd" d="M0.969727 10.4056C0.969727 9.8217 1.20164 9.26182 1.61446 8.84909L9.31879 1.14473C10.1784 0.285091 11.5722 0.285091 12.4318 1.14473L20.1361 8.84909C20.5489 9.26182 20.7808 9.8217 20.7808 10.4056V19.3994C20.7808 20.0071 20.2881 20.5 19.6802 20.5H13.0765C12.4686 20.5 11.9759 20.0071 11.9759 19.3994V13.8963H9.77466V19.3994C9.77466 20.0071 9.28192 20.5 8.67405 20.5H2.07034C1.46249 20.5 0.969727 20.0071 0.969727 19.3994V10.4056ZM2.78184 10.0164C2.67863 10.1196 2.62065 10.2596 2.62065 10.4056V18.8491H8.12374V13.3459C8.12374 12.7381 8.6165 12.2453 9.22435 12.2453H12.5262C13.1341 12.2453 13.6268 12.7381 13.6268 13.3459V18.8491H19.1299V10.4056C19.1299 10.2596 19.0719 10.1196 18.9688 10.0164L11.2645 2.3121C11.0495 2.09719 10.7011 2.09719 10.4861 2.31211L2.78184 10.0164Z" fill="#6E6F38"/>
</svg>
