<svg width="24" height="25" viewBox="0 0 24 25" fill="none" xmlns="http://www.w3.org/2000/svg">
<path d="M12 24.5625C5.38286 24.5625 0 19.1795 0 12.5625C0 5.94548 5.38298 0.5625 12 0.5625C18.617 0.5625 24 5.94548 24 12.5625C24 19.1795 18.617 24.5625 12 24.5625ZM12 2.61964C6.48 2.61964 2.02286 7.0766 2.02286 12.5625C2.02286 18.0484 6.48006 22.5396 12 22.5396C17.5199 22.5396 21.9771 18.0824 21.9771 12.5625C21.9427 7.07666 17.4858 2.61964 12 2.61964Z" fill="#101B17"/>
<path d="M11.6586 15.8956C11.1083 15.8956 10.6268 15.4461 10.6268 14.8585C10.6268 13.2682 11.6586 11.8856 13.1372 11.4362C13.7907 11.2288 14.2379 10.6412 14.2033 9.94989C14.2033 8.70545 13.1715 7.66835 11.9335 7.66835C10.6954 7.66835 9.66364 8.70545 9.66364 9.94989C9.66364 10.503 9.21649 10.987 8.63187 10.987C8.08157 10.987 7.6001 10.5375 7.6001 9.94989C7.66919 7.56465 9.59498 5.62891 11.968 5.62891C14.341 5.62891 16.2668 7.56465 16.2668 9.94989C16.2668 11.5401 15.235 12.9227 13.7563 13.3722C13.1029 13.5795 12.6557 14.1672 12.6903 14.8585C12.6903 15.4116 12.2088 15.8956 11.6585 15.8956H11.6586Z" fill="#101B17"/>
<path d="M12.9332 17.962C12.9332 18.6617 12.366 19.2286 11.6666 19.2286C10.9668 19.2286 10.3999 18.6617 10.3999 17.962C10.3999 17.2625 10.9668 16.6953 11.6666 16.6953C12.3661 16.6953 12.9332 17.2625 12.9332 17.962Z" fill="#101B17"/>
</svg>
