<svg width="26" height="25" viewBox="0 0 26 25" fill="none" xmlns="http://www.w3.org/2000/svg">
<path d="M18.4378 1.03258C18.6295 0.580823 19.1528 0.367763 19.5919 0.586613C19.7216 0.651219 19.8502 0.717672 19.9777 0.785948C21.8899 1.80993 23.5508 3.24166 24.8446 4.96494C25.1393 5.35749 25.0245 5.91072 24.6146 6.18101C24.2055 6.45094 23.6573 6.3362 23.3598 5.94656C23.2118 5.75257 23.0583 5.56289 22.8999 5.37769C21.7904 4.08134 20.4307 3.00549 18.8954 2.22496C18.4583 2.00267 18.2461 1.48404 18.4378 1.03258Z" fill="white"/>
<path d="M7.56241 1.03258C7.37065 0.580823 6.84745 0.367763 6.40818 0.586613C4.33341 1.62033 2.53552 3.12678 1.15554 4.96494C0.860843 5.35749 0.975738 5.91072 1.38547 6.18101C1.79467 6.45094 2.34283 6.3362 2.64028 5.94656C3.82489 4.39475 5.35024 3.117 7.10466 2.22495C7.54184 2.00267 7.75403 1.48404 7.56241 1.03258Z" fill="white"/>
<path d="M12.556 14.612C12.2813 14.4534 12.112 14.1602 12.112 13.8429V9.9945C12.112 9.50402 12.5096 9.10641 13.0001 9.10641C13.4905 9.10641 13.8881 9.50402 13.8881 9.9945V13.3302L17.2897 15.294C17.7144 15.5393 17.8599 16.0824 17.6147 16.5072C17.584 16.5602 17.5487 16.609 17.5097 16.6532C17.2355 16.9622 16.7733 17.0468 16.4016 16.8322L12.556 14.612Z" fill="white"/>
<path fill-rule="evenodd" clip-rule="evenodd" d="M23.6572 13.8429C23.6572 19.7287 18.8859 24.5 13.0001 24.5C7.11431 24.5 2.34296 19.7287 2.34296 13.8429C2.34296 7.95715 7.11431 3.1858 13.0001 3.1858C18.8859 3.1858 23.6572 7.95715 23.6572 13.8429ZM21.881 13.8429C21.881 18.7477 17.9048 22.7238 13.0001 22.7238C8.09528 22.7238 4.11915 18.7477 4.11915 13.8429C4.11915 8.93811 8.09528 4.96198 13.0001 4.96198C17.9048 4.96198 21.881 8.93811 21.881 13.8429Z" fill="white"/>
</svg>
