<svg width="17" height="19" viewBox="0 0 17 19" fill="none" xmlns="http://www.w3.org/2000/svg">
<path fill-rule="evenodd" clip-rule="evenodd" d="M12.2917 4.63889C12.2917 6.78666 10.5505 8.52778 8.40278 8.52778C6.255 8.52778 4.51389 6.78666 4.51389 4.63889C4.51389 2.49111 6.255 0.75 8.40278 0.75C10.5505 0.75 12.2917 2.49111 12.2917 4.63889ZM10.8333 4.63889C10.8333 5.98125 9.74513 7.06944 8.40278 7.06944C7.06043 7.06944 5.97222 5.98125 5.97222 4.63889C5.97222 3.29653 7.06043 2.20833 8.40278 2.20833C9.74513 2.20833 10.8333 3.29653 10.8333 4.63889Z" fill="#101B17"/>
<path fill-rule="evenodd" clip-rule="evenodd" d="M16.1806 14.5231C16.1806 14.1018 16.0485 13.6878 15.7737 13.3685C13.9907 11.2974 11.3499 9.98611 8.40278 9.98611C5.45564 9.98611 2.81478 11.2974 1.03185 13.3685C0.756989 13.6878 0.625 14.1018 0.625 14.5231V16.3056C0.625 17.3795 1.49556 18.25 2.56944 18.25H14.2361C15.31 18.25 16.1806 17.3795 16.1806 16.3056V14.5231ZM14.2361 16.7917C14.5045 16.7917 14.7222 16.574 14.7222 16.3056V14.5231C14.7222 14.3984 14.6834 14.3372 14.6686 14.3199C13.1508 12.557 10.9075 11.4444 8.40278 11.4444C5.89804 11.4444 3.65475 12.557 2.13704 14.3199C2.12214 14.3372 2.08333 14.3984 2.08333 14.5231V16.3056C2.08333 16.574 2.30098 16.7917 2.56944 16.7917H14.2361Z" fill="#101B17"/>
</svg>
