<svg width="18" height="18" viewBox="0 0 18 18" fill="none" xmlns="http://www.w3.org/2000/svg">
<path d="M0 17C0 16.4477 0.447715 16 1 16H15C15.5523 16 16 16.4477 16 17C16 17.5523 15.5523 18 15 18H1C0.447715 18 0 17.5523 0 17ZM16 0H1C0.447715 0 0 0.447715 0 1V10C0 12.21 1.79 14 4 14H10C12.21 14 14 12.21 14 10V7H16C16.5304 7 17.0391 6.78929 17.4142 6.41421C17.7893 6.03914 18 5.53043 18 5V2C18 0.89 17.11 0 16 0ZM12 10C12 11.1 11.1 12 10 12H4C2.9 12 2 11.1 2 10V2H12V10ZM16 5H14V2H16V5Z" fill="#4D322D"/>
</svg>
