<svg width="383" height="332" viewBox="0 0 383 332" fill="none" xmlns="http://www.w3.org/2000/svg">
<path d="M336.987 251.287C336.987 250.737 335.663 249.301 335.12 249.301C334.578 249.301 333.247 250.737 333.247 251.287V263.607C339.511 268.89 347.525 271.528 357.08 271.528C372.782 271.528 382.996 264.818 382.996 251.614C382.996 246.665 381.456 243.035 378.382 240.505C375.309 237.975 369.052 234.562 359.713 230.273C351.257 226.534 345.659 223.562 342.694 221.252C339.836 218.939 338.413 215.969 338.413 212.446C338.413 203.534 345.661 197.483 357.414 197.483C364.547 197.483 370.702 199.686 375.967 203.976V214.208C375.967 214.976 377.291 216.187 377.834 216.187C378.377 216.187 379.708 214.758 379.708 214.208V201.888C373.777 196.388 366.413 193.633 357.633 193.633C343.246 193.633 334.241 201.112 334.241 212.555C334.241 217.395 335.891 221.252 339.181 223.997C342.479 226.752 348.41 229.94 356.975 233.794C360.374 235.222 362.79 236.324 364.331 237.091C365.872 237.75 367.622 238.635 369.712 239.728C371.796 240.721 373.227 241.605 373.994 242.373C376.959 244.57 379.267 247.765 378.825 251.721C378.825 262.177 370.262 267.677 357.633 267.677C349.394 267.677 342.48 265.583 336.991 261.402V251.286L336.987 251.287ZM270.943 267.679C261.056 267.679 252.933 264.376 246.669 257.889C240.412 251.287 237.339 242.817 237.339 232.583C237.339 222.35 240.412 213.879 246.669 207.386C252.933 200.784 261.056 197.481 270.943 197.481C280.83 197.481 288.729 200.786 294.993 207.386C301.25 213.879 304.432 222.35 304.432 232.583C304.432 242.817 301.25 251.287 294.993 257.889C288.729 264.376 280.714 267.679 270.943 267.679ZM270.943 193.633C259.963 193.633 250.842 197.263 243.711 204.634C236.572 212.011 232.949 221.25 232.949 232.583C232.949 243.917 236.572 253.156 243.711 260.526C250.843 267.897 259.963 271.527 270.943 271.527C281.923 271.527 290.929 267.897 298.066 260.526C305.206 253.156 308.829 243.91 308.829 232.583C308.829 221.257 305.206 212.011 298.066 204.634C290.927 197.263 281.814 193.633 270.943 193.633ZM200.174 271.086H203.356V194.075H199.299V263.607L145.926 194.075H134.613C134.064 194.075 132.747 195.395 132.747 195.946C132.747 196.497 134.064 197.816 134.613 197.816H142.744V271.086H146.693V201.555L200.174 271.086ZM112.936 271.086C113.486 271.086 114.694 269.767 114.694 269.216C114.694 268.665 113.486 267.455 112.936 267.455H99.6485V197.814H112.936C113.486 197.814 114.694 196.495 114.694 195.944C114.694 195.393 113.486 194.074 112.936 194.074H82.0793C81.5295 194.074 80.2126 195.393 80.2126 195.944C80.2126 196.495 81.5295 197.814 82.0793 197.814H95.3669V267.455H82.0793C81.5295 267.455 80.2126 268.665 80.2126 269.216C80.2126 269.767 81.5295 271.086 82.0793 271.086H112.936ZM29.3228 197.816V271.086H33.6043V197.816H62.9271V194.077H0V197.816H29.3228Z" fill="white"/>
<path d="M336.984 154.469C336.984 153.918 335.667 152.483 335.117 152.483C334.567 152.483 333.25 153.918 333.25 154.469V166.789C339.507 172.071 347.529 174.71 357.083 174.71C372.786 174.71 383 167.999 383 154.795C383 149.846 381.459 146.216 378.386 143.686C375.313 141.156 369.049 137.744 359.717 133.455C351.261 129.716 345.662 126.744 342.698 124.433C339.84 122.121 338.416 119.151 338.416 115.628C338.416 106.722 345.664 100.671 357.411 100.671C364.55 100.671 370.698 102.868 375.971 107.157V117.389C375.971 118.165 377.288 119.375 377.838 119.375C378.387 119.375 379.704 117.94 379.704 117.389V105.07C373.773 99.5694 366.417 96.8149 357.637 96.8149C343.249 96.8149 334.245 104.301 334.245 115.744C334.245 120.584 335.887 124.431 339.185 127.186C342.475 129.932 348.406 133.121 356.971 136.976C360.377 138.404 362.794 139.506 364.335 140.272C365.869 140.932 367.625 141.816 369.716 142.918C371.8 143.904 373.223 144.788 373.997 145.555C376.962 147.758 379.263 150.946 378.829 154.902C378.829 165.359 370.257 170.859 357.637 170.859C349.397 170.859 342.477 168.764 336.985 164.59V154.467L336.984 154.469ZM227.62 145.448C227.62 154.36 230.369 161.397 235.859 166.789C241.349 172.071 248.597 174.71 257.492 174.71C266.388 174.71 273.528 172.073 279.017 166.789C284.507 161.397 287.248 154.36 287.248 145.448V97.2571H282.966V145.448C282.966 153.26 280.658 159.529 276.051 164.043C271.437 168.55 265.289 170.863 257.491 170.863C241.788 170.863 231.908 161.182 231.908 145.448V97.2571H219.496C218.946 97.2571 217.63 98.5764 217.63 99.1273C217.63 99.6782 218.946 100.998 219.496 100.998H227.62V145.448ZM154.277 137.193C153.734 137.193 152.526 138.513 152.526 139.063C152.526 139.614 153.734 140.934 154.277 140.934H172.512V163.492C167.13 168.441 159.658 170.863 150.111 170.863C139.674 170.863 131.327 167.675 125.07 161.182C118.813 154.688 115.624 146.218 115.624 135.876C115.624 125.533 118.697 117.063 124.961 110.57C131.218 103.968 139.455 100.671 149.561 100.671C158.891 100.671 166.689 103.526 172.837 109.25V119.591C172.837 120.142 174.154 121.57 174.704 121.57C175.254 121.57 176.571 120.142 176.571 119.591V107.489C169.655 100.336 160.543 96.8149 149.447 96.8149C138.352 96.8149 129.138 100.445 121.998 107.815C114.859 115.193 111.236 124.54 111.236 135.874C111.236 147.207 114.859 156.446 121.998 163.817C129.138 171.078 138.468 174.708 149.997 174.708C161.527 174.708 170.316 171.52 176.571 165.027V137.193H154.279H154.277ZM57.7665 146.323H17.9054L37.7825 103.091L57.7683 146.323H57.7665ZM27.1269 97.2571C26.577 97.2571 25.2602 98.5764 25.2602 99.1273C25.2602 99.6782 26.577 100.998 27.1269 100.998H34.4834L1.3186 172.731C1.3186 172.949 1.86846 173.391 2.8596 173.942C3.84374 174.492 4.61775 174.71 4.94346 174.71L16.2558 150.064H59.2988L70.6111 174.71C71.4937 174.71 74.3428 173.173 74.3428 172.731L39.5372 97.2571H27.1251H27.1269Z" fill="white"/>
<path d="M336.983 57.6471C336.983 57.0962 335.667 55.6681 335.117 55.6681C334.567 55.6681 333.25 57.0962 333.25 57.6471V69.9738C339.507 75.2494 347.529 77.895 357.083 77.895C372.786 77.895 383 71.1843 383 57.9805C383 53.0312 381.459 49.4013 378.386 46.8644C375.312 44.3345 369.049 40.9221 359.717 36.6325C351.261 32.8939 345.662 29.9218 342.697 27.6113C339.84 25.3077 338.416 22.3357 338.416 18.8145C338.416 9.90202 345.664 3.85098 357.411 3.85098C364.55 3.85098 370.698 6.05455 375.971 10.3441V20.576C375.971 21.3444 377.288 22.555 377.838 22.555C378.387 22.555 379.704 21.1269 379.704 20.576V8.24759C373.77 2.74744 366.413 0 357.633 0C343.246 0 334.241 7.47915 334.241 18.9216C334.241 23.762 335.884 27.6095 339.181 30.364C342.472 33.1184 348.403 36.3062 356.967 40.1537C360.373 41.5888 362.79 42.6836 364.331 43.459C365.865 44.1187 367.621 44.9959 369.712 46.096C371.796 47.089 373.22 47.9662 373.994 48.7346C376.958 50.9382 379.259 54.126 378.825 58.0893C378.825 68.5387 370.253 74.0388 357.633 74.0388C349.394 74.0388 342.473 71.951 336.982 67.7702V57.6471H336.983ZM189.198 74.0388C179.311 74.0388 171.188 70.7422 164.924 64.2491C158.667 57.6471 155.594 49.1767 155.594 38.9431C155.594 28.7095 158.667 20.2391 164.924 13.746C171.188 7.15107 179.311 3.84747 189.198 3.84747C199.085 3.84747 206.984 7.15107 213.241 13.746C219.505 20.2391 222.687 28.7095 222.687 38.9431C222.687 49.1767 219.505 57.6471 213.241 64.2491C206.984 70.7422 198.971 74.0388 189.198 74.0388ZM189.198 0C178.211 0 169.097 3.62992 161.959 11.0003C154.827 18.3707 151.204 27.6095 151.204 38.9431C151.204 50.2768 154.827 59.5156 161.959 66.886C169.098 74.2634 178.211 77.8933 189.198 77.8933C200.185 77.8933 209.184 74.2634 216.321 66.886C223.454 59.5156 227.077 50.2768 227.077 38.9431C227.077 27.6095 223.454 18.3707 216.321 11.0003C209.182 3.63168 200.069 0 189.198 0ZM55.4584 77.4529V73.7142H12.848V0.435099H8.67505V77.4529H55.4584Z" fill="white"/>
<path d="M366.137 330.553C362.405 330.553 359.344 329.307 356.98 326.865C354.614 324.372 353.457 321.184 353.457 317.328C353.457 313.471 354.614 310.284 356.98 307.834C359.346 305.348 362.405 304.103 366.137 304.103C369.868 304.103 372.849 305.348 375.214 307.834C377.573 310.284 378.773 313.473 378.773 317.328C378.773 321.182 377.572 324.372 375.214 326.865C372.849 329.307 369.826 330.553 366.137 330.553ZM366.137 302.661C361.992 302.661 358.556 304.024 355.859 306.799C353.168 309.575 351.809 313.061 351.809 317.329C351.809 321.598 353.169 325.084 355.859 327.86C358.558 330.635 361.993 331.998 366.137 331.998C370.28 331.998 373.68 330.635 376.372 327.86C379.063 325.084 380.429 321.598 380.429 317.329C380.429 313.061 379.062 309.575 376.372 306.799C373.68 304.024 370.238 302.661 366.137 302.661ZM310.624 324.075C310.624 327.895 308.099 330.554 304.33 330.554C302.378 330.554 300.807 329.932 299.607 328.684C299.318 328.684 298.609 329.388 298.609 329.677C300.099 331.214 302.008 331.996 304.367 331.996C306.726 331.996 308.556 331.258 310.002 329.765C311.449 328.265 312.195 326.36 312.195 324.077V302.787H305.612C305.409 302.787 304.91 303.28 304.91 303.49C304.91 303.701 305.409 304.194 305.612 304.194H310.624V324.079V324.075ZM262.648 331.83C262.858 331.83 263.313 331.337 263.313 331.126C263.313 330.916 262.858 330.467 262.648 330.467H257.636V304.191H262.648C262.858 304.191 263.313 303.69 263.313 303.487C263.313 303.283 262.858 302.783 262.648 302.783H251.01C250.807 302.783 250.308 303.276 250.308 303.487C250.308 303.698 250.807 304.191 251.01 304.191H256.022V330.467H251.01C250.807 330.467 250.308 330.923 250.308 331.126C250.308 331.33 250.807 331.83 251.01 331.83H262.648ZM202.708 304.191V331.83H204.314V304.191H215.381V302.785H191.643V304.191H202.71H202.708ZM147.064 304.191C149.097 304.191 150.796 304.813 152.076 306.096C153.363 307.385 154.028 309.001 154.028 310.994C154.028 312.987 153.363 314.61 152.076 315.9C150.796 317.182 149.095 317.805 147.064 317.805H139.44V304.189H147.064V304.191ZM134.761 302.785C134.557 302.785 134.058 303.278 134.058 303.489C134.058 303.699 134.557 304.192 134.761 304.192H137.827V331.832H139.44V319.215H146.651C147.02 319.926 147.476 320.794 148.097 321.831C148.719 322.831 149.754 324.324 151.288 326.353C152.822 328.389 154.478 330.258 156.258 331.998C156.546 331.998 157.334 331.253 157.334 330.961C153.862 327.475 150.874 323.533 148.351 319.135C150.507 318.845 152.242 317.975 153.61 316.482C154.977 314.989 155.636 313.156 155.636 310.996C155.636 308.633 154.811 306.641 153.198 305.105C151.585 303.568 149.552 302.785 147.108 302.785H134.761ZM83.2246 330.554C79.4929 330.554 76.4249 329.309 74.0679 326.867C71.7021 324.373 70.5446 321.186 70.5446 317.329C70.5446 313.473 71.7021 310.285 74.0679 307.836C76.4267 305.35 79.4929 304.105 83.2246 304.105C86.9562 304.105 89.9367 305.35 92.2955 307.836C94.6612 310.285 95.8608 313.475 95.8608 317.329C95.8608 321.184 94.6595 324.373 92.2955 326.867C89.9367 329.309 86.9072 330.554 83.2246 330.554ZM83.2246 302.662C79.0796 302.662 75.6369 304.026 72.9471 306.801C70.2556 309.577 68.8898 313.063 68.8898 317.331C68.8898 321.6 70.2574 325.086 72.9471 327.861C75.6386 330.637 79.0814 332 83.2246 332C87.3678 332 90.7615 330.637 93.46 327.861C96.1515 325.086 97.5104 321.6 97.5104 317.331C97.5104 313.063 96.1497 309.577 93.46 306.801C90.7615 304.026 87.3257 302.662 83.2246 302.662ZM29.6573 311.401C29.6573 311.612 30.1493 312.105 30.3595 312.105C30.5696 312.105 31.0617 311.612 31.0617 311.401V306.677C28.4577 303.98 25.015 302.662 20.7913 302.662C16.5675 302.662 13.1668 304.026 10.4701 306.801C7.77856 309.577 6.41968 313.063 6.41968 317.331C6.41968 321.6 7.78031 325.086 10.4701 327.861C13.1686 330.637 16.6463 332 20.9138 332C25.1814 332 28.7905 330.595 31.4732 327.738C31.4732 327.405 30.8148 326.738 30.5258 326.738C28.125 329.268 24.9345 330.558 20.9138 330.558C17.1016 330.558 13.9916 329.312 11.6346 326.87C9.26878 324.421 8.06925 321.231 8.06925 317.333C8.06925 313.435 9.27053 310.245 11.6346 307.796C13.9933 305.354 17.1034 304.108 20.8718 304.108C24.3951 304.108 27.3388 305.187 29.6608 307.34V311.405L29.6573 311.401Z" fill="white"/>
</svg>
