<?xml version="1.0" encoding="utf-8"?>
<!-- Generator: Adobe Illustrator 23.0.1, SVG Export Plug-In . SVG Version: 6.00 Build 0)  -->
<svg version="1.1" id="Capa_1" xmlns="http://www.w3.org/2000/svg" xmlns:xlink="http://www.w3.org/1999/xlink" x="0px" y="0px"
	 viewBox="0 0 383 332" style="enable-background:new 0 0 383 332;" xml:space="preserve">
<style type="text/css">
	.st0{fill:#FFFFFF;}
</style>
<path class="st0" d="M337,251.3c0-0.6-1.3-2-1.9-2c-0.5,0-1.9,1.4-1.9,2v12.3c6.3,5.3,14.3,7.9,23.8,7.9c15.7,0,25.9-6.7,25.9-19.9
	c0-4.9-1.5-8.6-4.6-11.1c-3.1-2.5-9.3-5.9-18.7-10.2c-8.5-3.7-14.1-6.7-17-9c-2.9-2.3-4.3-5.3-4.3-8.8c0-8.9,7.2-15,19-15
	c7.1,0,13.3,2.2,18.6,6.5v10.2c0,0.8,1.3,2,1.9,2c0.5,0,1.9-1.4,1.9-2v-12.3c-5.9-5.5-13.3-8.3-22.1-8.3c-14.4,0-23.4,7.5-23.4,18.9
	c0,4.8,1.6,8.7,4.9,11.4c3.3,2.8,9.2,5.9,17.8,9.8c3.4,1.4,5.8,2.5,7.4,3.3c1.5,0.7,3.3,1.5,5.4,2.6c2.1,1,3.5,1.9,4.3,2.6
	c3,2.2,5.3,5.4,4.8,9.3c0,10.5-8.6,16-21.2,16c-8.2,0-15.2-2.1-20.6-6.3L337,251.3L337,251.3z M270.9,267.7c-9.9,0-18-3.3-24.3-9.8
	c-6.3-6.6-9.3-15.1-9.3-25.3c0-10.2,3.1-18.7,9.3-25.2c6.3-6.6,14.4-9.9,24.3-9.9s17.8,3.3,24.1,9.9c6.3,6.5,9.4,15,9.4,25.2
	c0,10.2-3.2,18.7-9.4,25.3C288.7,264.4,280.7,267.7,270.9,267.7z M270.9,193.6c-11,0-20.1,3.6-27.2,11c-7.1,7.4-10.8,16.6-10.8,27.9
	c0,11.3,3.6,20.6,10.8,27.9c7.1,7.4,16.3,11,27.2,11c11,0,20-3.6,27.1-11c7.1-7.4,10.8-16.6,10.8-27.9c0-11.3-3.6-20.6-10.8-27.9
	C290.9,197.3,281.8,193.6,270.9,193.6z M200.2,271.1h3.2v-77h-4.1v69.5l-53.4-69.5h-11.3c-0.5,0-1.9,1.3-1.9,1.9s1.3,1.9,1.9,1.9
	h8.1v73.3h3.9v-69.5L200.2,271.1z M112.9,271.1c0.6,0,1.8-1.3,1.8-1.9s-1.2-1.8-1.8-1.8H99.6v-69.6h13.3c0.6,0,1.8-1.3,1.8-1.9
	s-1.2-1.9-1.8-1.9H82.1c-0.5,0-1.9,1.3-1.9,1.9s1.3,1.9,1.9,1.9h13.3v69.6H82.1c-0.5,0-1.9,1.2-1.9,1.8s1.3,1.9,1.9,1.9H112.9z
	 M29.3,197.8v73.3h4.3v-73.3h29.3v-3.7H0v3.7H29.3z"/>
<path class="st0" d="M365.6,324.3c0-0.2-0.5-0.8-0.7-0.8c-0.2,0-0.7,0.5-0.7,0.8v4.7c2.4,2,5.4,3,9,3c5.9,0,9.8-2.5,9.8-7.5
	c0-1.9-0.6-3.2-1.7-4.2c-1.2-1-3.5-2.2-7.1-3.9c-3.2-1.4-5.3-2.5-6.4-3.4c-1.1-0.9-1.6-2-1.6-3.3c0-3.4,2.7-5.7,7.2-5.7
	c2.7,0,5,0.8,7,2.5v3.9c0,0.3,0.5,0.7,0.7,0.7s0.7-0.5,0.7-0.7v-4.7c-2.2-2.1-5-3.1-8.4-3.1c-5.4,0-8.8,2.8-8.8,7.2
	c0,1.8,0.6,3.3,1.9,4.3c1.2,1,3.5,2.2,6.7,3.7c1.3,0.5,2.2,1,2.8,1.2c0.6,0.2,1.2,0.6,2,1c0.8,0.4,1.3,0.7,1.6,1
	c1.1,0.8,2,2,1.8,3.5c0,4-3.2,6-8,6c-3.1,0-5.7-0.8-7.8-2.4L365.6,324.3L365.6,324.3z"/>
<path class="st0" d="M337,154.5c0-0.6-1.3-2-1.9-2c-0.6,0-1.9,1.4-1.9,2v12.3c6.3,5.3,14.3,7.9,23.8,7.9c15.7,0,25.9-6.7,25.9-19.9
	c0-4.9-1.5-8.6-4.6-11.1c-3.1-2.5-9.3-5.9-18.7-10.2c-8.5-3.7-14.1-6.7-17-9c-2.9-2.3-4.3-5.3-4.3-8.8c0-8.9,7.2-15,19-15
	c7.1,0,13.3,2.2,18.6,6.5v10.2c0,0.8,1.3,2,1.9,2c0.5,0,1.9-1.4,1.9-2v-12.3c-5.9-5.5-13.3-8.3-22.1-8.3c-14.4,0-23.4,7.5-23.4,18.9
	c0,4.8,1.6,8.7,4.9,11.4c3.3,2.7,9.2,5.9,17.8,9.8c3.4,1.4,5.8,2.5,7.4,3.3c1.5,0.7,3.3,1.5,5.4,2.6c2.1,1,3.5,1.9,4.3,2.6
	c3,2.2,5.3,5.4,4.8,9.3c0,10.5-8.6,16-21.2,16c-8.2,0-15.2-2.1-20.7-6.3L337,154.5L337,154.5z M227.6,145.4c0,8.9,2.7,15.9,8.2,21.3
	c5.5,5.3,12.7,7.9,21.6,7.9c8.9,0,16-2.6,21.5-7.9c5.5-5.4,8.2-12.4,8.2-21.3V97.3H283v48.2c0,7.8-2.3,14.1-6.9,18.6
	c-4.6,4.5-10.8,6.8-18.6,6.8c-15.7,0-25.6-9.7-25.6-25.4V97.3h-12.4c-0.6,0-1.9,1.3-1.9,1.9c0,0.6,1.3,1.9,1.9,1.9h8.1V145.4z
	 M154.3,137.2c-0.5,0-1.8,1.3-1.8,1.9c0,0.6,1.2,1.9,1.8,1.9h18.2v22.6c-5.4,4.9-12.9,7.4-22.4,7.4c-10.4,0-18.8-3.2-25-9.7
	c-6.3-6.5-9.4-15-9.4-25.3c0-10.3,3.1-18.8,9.3-25.3c6.3-6.6,14.5-9.9,24.6-9.9c9.3,0,17.1,2.9,23.3,8.6v10.3c0,0.6,1.3,2,1.9,2
	c0.6,0,1.9-1.4,1.9-2v-12.1c-6.9-7.2-16-10.7-27.1-10.7c-11.1,0-20.3,3.6-27.4,11c-7.1,7.4-10.8,16.7-10.8,28.1
	c0,11.3,3.6,20.6,10.8,27.9c7.1,7.3,16.5,10.9,28,10.9c11.5,0,20.3-3.2,26.6-9.7v-27.8H154.3L154.3,137.2z M57.8,146.3H17.9
	l19.9-43.2L57.8,146.3L57.8,146.3z M27.1,97.3c-0.5,0-1.9,1.3-1.9,1.9c0,0.6,1.3,1.9,1.9,1.9h7.4L1.3,172.7c0,0.2,0.5,0.7,1.5,1.2
	c1,0.6,1.8,0.8,2.1,0.8l11.3-24.6h43l11.3,24.6c0.9,0,3.7-1.5,3.7-2L39.5,97.3H27.1L27.1,97.3z"/>
<path class="st0" d="M337,57.6c0-0.6-1.3-2-1.9-2c-0.6,0-1.9,1.4-1.9,2V70c6.3,5.3,14.3,7.9,23.8,7.9c15.7,0,25.9-6.7,25.9-19.9
	c0-4.9-1.5-8.6-4.6-11.1c-3.1-2.5-9.3-5.9-18.7-10.2c-8.5-3.7-14.1-6.7-17-9c-2.9-2.3-4.3-5.3-4.3-8.8c0-8.9,7.2-15,19-15
	c7.1,0,13.3,2.2,18.6,6.5v10.2c0,0.8,1.3,2,1.9,2c0.5,0,1.9-1.4,1.9-2V8.2C373.8,2.7,366.4,0,357.6,0c-14.4,0-23.4,7.5-23.4,18.9
	c0,4.8,1.6,8.7,4.9,11.4c3.3,2.8,9.2,5.9,17.8,9.8c3.4,1.4,5.8,2.5,7.4,3.3c1.5,0.7,3.3,1.5,5.4,2.6c2.1,1,3.5,1.9,4.3,2.6
	c3,2.2,5.3,5.4,4.8,9.4c0,10.4-8.6,15.9-21.2,15.9c-8.2,0-15.2-2.1-20.7-6.3L337,57.6L337,57.6z M189.2,74c-9.9,0-18-3.3-24.3-9.8
	c-6.3-6.6-9.3-15.1-9.3-25.3s3.1-18.7,9.3-25.2c6.3-6.6,14.4-9.9,24.3-9.9c9.9,0,17.8,3.3,24,9.9c6.3,6.5,9.4,15,9.4,25.2
	s-3.2,18.7-9.4,25.3C207,70.7,199,74,189.2,74z M189.2,0c-11,0-20.1,3.6-27.2,11c-7.1,7.4-10.8,16.6-10.8,27.9
	c0,11.3,3.6,20.6,10.8,27.9c7.1,7.4,16.3,11,27.2,11s20-3.6,27.1-11c7.1-7.4,10.8-16.6,10.8-27.9c0-11.3-3.6-20.6-10.8-27.9
	C209.2,3.6,200.1,0,189.2,0z M55.5,77.5v-3.7H12.8V0.4H8.7v77H55.5z"/>
<path class="st0" d="M198.5,332c0.2,0,0.7-0.5,0.7-0.7c0-0.2-0.5-0.7-0.7-0.7h-5v-26.3h5c0.2,0,0.7-0.5,0.7-0.7
	c0-0.2-0.5-0.7-0.7-0.7h-11.6c-0.2,0-0.7,0.5-0.7,0.7s0.5,0.7,0.7,0.7h5v26.3h-5c-0.2,0-0.7,0.5-0.7,0.7c0,0.2,0.5,0.7,0.7,0.7
	H198.5z"/>
<polygon class="st0" points="131.5,304.4 131.5,332 133.1,332 133.1,304.4 144.2,304.4 144.2,303 120.4,303 120.4,304.4 
	131.5,304.4 "/>
<path class="st0" d="M323.5,306.8c-2.7-2.8-6.1-4.1-10.2-4.1c-4.1,0-7.6,1.4-10.3,4.1c-2.7,2.8-4.1,6.3-4.1,10.5
	c0,4.3,1.4,7.8,4.1,10.5c2.7,2.8,6.1,4.1,10.3,4.1c4.1,0,7.5-1.4,10.2-4.1c2.7-2.8,4.1-6.3,4.1-10.5
	C327.6,313.1,326.2,309.6,323.5,306.8z M322.4,326.9c-2.4,2.4-5.4,3.7-9.1,3.7c-3.7,0-6.8-1.3-9.2-3.7c-2.4-2.5-3.5-5.7-3.5-9.5
	c0-3.8,1.2-7,3.5-9.5c2.4-2.5,5.4-3.7,9.2-3.7c3.7,0,6.7,1.2,9.1,3.7c2.4,2.5,3.6,5.6,3.6,9.5C325.9,321.2,324.7,324.4,322.4,326.9z
	"/>
<g>
	<path class="st0" d="M14.3,319.1c2.2-0.3,3.9-1.2,5.3-2.7s2-3.3,2-5.5c0-2.4-0.8-4.4-2.4-5.9c-1.6-1.5-3.6-2.3-6.1-2.3H0.7
		c-0.2,0-0.7,0.5-0.7,0.7c0,0.2,0.4,0.6,0.6,0.7c0,0,0.1,0,0.1,0h3.1v27.6h1.6v-12.6h7.2c0.4,0.7,0.8,1.6,1.5,2.6
		c0.6,1,1.7,2.5,3.2,4.5c1.5,2,3.2,3.9,5,5.7c0.3,0,1.1-0.8,1.1-1C19.8,327.5,16.8,323.5,14.3,319.1z M13,317.8H5.4v-13.6H13
		c2,0,3.7,0.6,5,1.9c1.3,1.3,2,2.9,2,4.9c0,2-0.7,3.6-2,4.9C16.7,317.2,15,317.8,13,317.8z"/>
</g>
<g>
	<path class="st0" d="M255.6,319.1c2.2-0.3,3.9-1.2,5.3-2.7c1.4-1.5,2-3.3,2-5.5c0-2.4-0.8-4.4-2.4-5.9c-1.6-1.5-3.7-2.3-6.1-2.3
		H242c-0.2,0-0.7,0.5-0.7,0.7s0.5,0.7,0.7,0.7h3.1v27.6h1.6v-12.6h7.2c0.4,0.7,0.8,1.6,1.5,2.6c0.6,1,1.7,2.5,3.2,4.5
		c1.5,2,3.2,3.9,5,5.7c0.3,0,1.1-0.8,1.1-1C261.1,327.5,258.1,323.5,255.6,319.1z M254.3,317.8h-7.6v-13.6h7.6c2,0,3.7,0.6,5,1.9
		c1.3,1.3,2,2.9,2,4.9c0,2-0.7,3.6-2,4.9C258,317.2,256.3,317.8,254.3,317.8z"/>
</g>
<rect x="82.4" y="365.5" class="st0" width="0" height="0"/>
<polygon class="st0" points="68.7,304.4 68.7,315.8 76.2,315.8 76.2,317.1 68.7,317.1 68.7,330.6 80.6,330.6 80.6,332 63.3,332 
	63.3,330.6 67.1,330.6 67.1,304.4 63.3,304.4 63.3,302.9 80.7,302.9 80.7,304.4 "/>
</svg>
