<svg width="385" height="333" viewBox="0 0 385 333" fill="none" xmlns="http://www.w3.org/2000/svg">
<path d="M338.747 252.044C338.747 251.492 337.416 250.052 336.87 250.052C336.325 250.052 334.987 251.492 334.987 252.044V264.401C341.283 269.699 349.34 272.346 358.944 272.346C374.729 272.346 384.996 265.615 384.996 252.371C384.996 247.407 383.447 243.766 380.358 241.229C377.269 238.691 370.979 235.269 361.592 230.966C353.091 227.216 347.464 224.235 344.484 221.918C341.611 219.598 340.18 216.619 340.18 213.086C340.18 204.146 347.466 198.077 359.281 198.077C366.45 198.077 372.638 200.287 377.931 204.59V214.853C377.931 215.623 379.262 216.837 379.807 216.837C380.353 216.837 381.691 215.405 381.691 214.853V202.496C375.729 196.979 368.327 194.216 359.501 194.216C345.038 194.216 335.987 201.718 335.987 213.195C335.987 218.05 337.645 221.918 340.953 224.672C344.267 227.434 350.229 230.632 358.839 234.498C362.255 235.93 364.685 237.036 366.234 237.805C367.783 238.466 369.541 239.353 371.643 240.449C373.738 241.445 375.176 242.332 375.947 243.103C378.927 245.306 381.247 248.511 380.804 252.479C380.804 262.967 372.196 268.483 359.501 268.483C351.218 268.483 344.269 266.382 338.75 262.189V252.042L338.747 252.044ZM272.358 268.485C262.419 268.485 254.253 265.172 247.957 258.666C241.667 252.044 238.578 243.548 238.578 233.284C238.578 223.019 241.667 214.523 247.957 208.011C254.253 201.389 262.419 198.075 272.358 198.075C282.296 198.075 290.237 201.391 296.534 208.011C302.823 214.523 306.021 223.019 306.021 233.284C306.021 243.548 302.823 252.044 296.534 258.666C290.237 265.172 282.18 268.485 272.358 268.485ZM272.358 194.216C261.321 194.216 252.152 197.857 244.984 205.25C237.807 212.649 234.165 221.916 234.165 233.284C234.165 244.652 237.807 253.918 244.984 261.311C252.153 268.703 261.321 272.344 272.358 272.344C283.395 272.344 292.448 268.703 299.623 261.311C306.799 253.918 310.442 244.645 310.442 233.284C310.442 221.923 306.799 212.649 299.623 205.25C292.446 197.857 283.286 194.216 272.358 194.216ZM201.22 271.903H204.418V194.66H200.339V264.401L146.688 194.66H135.316C134.764 194.66 133.44 195.983 133.44 196.536C133.44 197.088 134.764 198.411 135.316 198.411H143.489V271.903H147.459V202.161L201.22 271.903ZM113.526 271.903C114.079 271.903 115.293 270.579 115.293 270.027C115.293 269.474 114.079 268.26 113.526 268.26H100.169V198.41H113.526C114.079 198.41 115.293 197.086 115.293 196.534C115.293 195.981 114.079 194.658 113.526 194.658H82.5079C81.9552 194.658 80.6315 195.981 80.6315 196.534C80.6315 197.086 81.9552 198.41 82.5079 198.41H95.8649V268.26H82.5079C81.9552 268.26 80.6315 269.474 80.6315 270.027C80.6315 270.579 81.9552 271.903 82.5079 271.903H113.526ZM29.4759 198.411V271.903H33.7798V198.411H63.2557V194.662H0V198.411H29.4759Z" fill="#101B17"/>
<path d="M338.743 154.934C338.743 154.382 337.42 152.942 336.867 152.942C336.314 152.942 334.99 154.382 334.99 154.934V167.291C341.28 172.589 349.344 175.236 358.948 175.236C374.732 175.236 385 168.505 385 155.262C385 150.297 383.451 146.657 380.362 144.119C377.272 141.582 370.976 138.159 361.595 133.856C353.095 130.106 347.467 127.125 344.487 124.808C341.614 122.489 340.183 119.509 340.183 115.976C340.183 107.044 347.469 100.974 359.277 100.974C366.454 100.974 372.634 103.177 377.934 107.48V117.743C377.934 118.52 379.258 119.735 379.811 119.735C380.363 119.735 381.687 118.295 381.687 117.743V105.386C375.725 99.8692 368.33 97.1064 359.504 97.1064C345.042 97.1064 335.99 104.615 335.99 116.092C335.99 120.947 337.641 124.806 340.956 127.569C344.264 130.323 350.226 133.522 358.835 137.388C362.259 138.821 364.688 139.926 366.237 140.695C367.779 141.356 369.545 142.243 371.646 143.348C373.741 144.337 375.172 145.224 375.95 145.993C378.931 148.203 381.244 151.401 380.807 155.369C380.807 165.857 372.19 171.374 359.504 171.374C351.222 171.374 344.265 169.272 338.745 165.086V154.932L338.743 154.934ZM228.808 145.886C228.808 154.825 231.572 161.883 237.091 167.291C242.609 172.589 249.895 175.236 258.837 175.236C267.779 175.236 274.956 172.591 280.474 167.291C285.993 161.883 288.748 154.825 288.748 145.886V97.5499H284.444V145.886C284.444 153.722 282.124 160.009 277.493 164.537C272.854 169.058 266.674 171.377 258.835 171.377C243.051 171.377 233.119 161.667 233.119 145.886V97.5499H220.642C220.09 97.5499 218.766 98.8732 218.766 99.4258C218.766 99.9783 220.09 101.302 220.642 101.302H228.808V145.886ZM155.083 137.606C154.537 137.606 153.322 138.93 153.322 139.482C153.322 140.035 154.537 141.358 155.083 141.358H173.412V163.984C168.003 168.949 160.492 171.377 150.895 171.377C140.404 171.377 132.012 168.18 125.723 161.667C119.433 155.154 116.228 146.658 116.228 136.285C116.228 125.911 119.317 117.415 125.614 110.903C131.903 104.281 140.184 100.974 150.342 100.974C159.721 100.974 167.559 103.837 173.74 109.579V119.951C173.74 120.504 175.063 121.936 175.616 121.936C176.169 121.936 177.493 120.504 177.493 119.951V107.813C170.541 100.638 161.381 97.1064 150.228 97.1064C139.075 97.1064 129.812 100.747 122.635 108.14C115.459 115.539 111.817 124.915 111.817 136.283C111.817 147.651 115.459 156.917 122.635 164.31C129.812 171.593 139.191 175.234 150.78 175.234C162.37 175.234 171.205 172.037 177.493 165.524V137.606H155.084H155.083ZM58.0681 146.764H17.9988L37.9798 103.401L58.0699 146.764H58.0681ZM27.2685 97.5499C26.7157 97.5499 25.392 98.8732 25.392 99.4258C25.392 99.9783 26.7157 101.302 27.2685 101.302H34.6634L1.32544 173.251C1.32544 173.469 1.87817 173.913 2.87449 174.465C3.86377 175.018 4.64181 175.236 4.96922 175.236L16.3406 150.516H59.6084L70.9798 175.236C71.867 175.236 74.7309 173.695 74.7309 173.251L39.7436 97.5499H27.2667H27.2685Z" fill="#101B17"/>
<path d="M338.743 57.8208C338.743 57.2682 337.42 55.8358 336.867 55.8358C336.314 55.8358 334.99 57.2682 334.99 57.8208V70.1845C341.28 75.476 349.344 78.1297 358.948 78.1297C374.732 78.1297 385 71.3987 385 58.1551C385 53.191 383.451 49.5501 380.362 47.0056C377.272 44.468 370.976 41.0454 361.595 36.7429C353.095 32.9929 347.467 30.012 344.487 27.6944C341.614 25.3839 340.183 22.403 340.183 18.8712C340.183 9.93184 347.469 3.86258 359.277 3.86258C366.454 3.86258 372.634 6.07278 377.934 10.3753V20.638C377.934 21.4087 379.258 22.6229 379.811 22.6229C380.363 22.6229 381.687 21.1905 381.687 20.638V8.27243C375.722 2.75572 368.327 0 359.501 0C345.038 0 335.987 7.50167 335.987 18.9785C335.987 23.8336 337.638 27.6927 340.952 30.4554C344.26 33.2182 350.222 36.4156 358.832 40.2746C362.255 41.7141 364.685 42.8121 366.234 43.5899C367.776 44.2516 369.541 45.1315 371.643 46.2348C373.738 47.2308 375.169 48.1107 375.947 48.8814C378.927 51.0916 381.24 54.289 380.803 58.2642C380.803 68.7451 372.187 74.2618 359.501 74.2618C351.218 74.2618 344.262 72.1677 338.742 67.9743V57.8208H338.743ZM190.186 74.2618C180.248 74.2618 172.082 70.9553 165.785 64.4426C159.496 57.8208 156.406 49.3249 156.406 39.0604C156.406 28.796 159.496 20.3001 165.785 13.7874C172.082 7.17261 180.248 3.85906 190.186 3.85906C200.125 3.85906 208.065 7.17261 214.355 13.7874C220.651 20.3001 223.85 28.796 223.85 39.0604C223.85 49.3249 220.651 57.8208 214.355 64.4426C208.065 70.9553 200.01 74.2618 190.186 74.2618ZM190.186 0C179.142 0 169.98 3.64085 162.805 11.0334C155.635 18.426 151.993 27.6927 151.993 39.0604C151.993 50.4282 155.635 59.6949 162.805 67.0874C169.982 74.487 179.142 78.1279 190.186 78.1279C201.23 78.1279 210.276 74.487 217.451 67.0874C224.621 59.6949 228.263 50.4282 228.263 39.0604C228.263 27.6927 224.621 18.426 217.451 11.0334C210.274 3.64261 201.114 0 190.186 0ZM55.7481 77.6862V73.9363H12.9152V0.43641H8.72046V77.6862H55.7481Z" fill="#101B17"/>
<path d="M368.048 331.548C364.297 331.548 361.22 330.299 358.844 327.849C356.466 325.349 355.302 322.151 355.302 318.283C355.302 314.416 356.466 311.218 358.844 308.762C361.222 306.268 364.297 305.019 368.048 305.019C371.8 305.019 374.796 306.268 377.174 308.762C379.545 311.218 380.751 314.417 380.751 318.283C380.751 322.15 379.543 325.349 377.174 327.849C374.796 330.299 371.757 331.548 368.048 331.548ZM368.048 303.572C363.882 303.572 360.428 304.94 357.717 307.723C355.012 310.507 353.646 314.004 353.646 318.285C353.646 322.567 355.014 326.063 357.717 328.847C360.43 331.631 363.884 332.998 368.048 332.998C372.213 332.998 375.632 331.631 378.337 328.847C381.043 326.063 382.416 322.567 382.416 318.285C382.416 314.004 381.041 310.507 378.337 307.723C375.632 304.94 372.171 303.572 368.048 303.572ZM312.246 325.051C312.246 328.882 309.707 331.55 305.919 331.55C303.957 331.55 302.378 330.925 301.172 329.674C300.881 329.674 300.168 330.38 300.168 330.67C301.666 332.212 303.585 332.996 305.956 332.996C308.327 332.996 310.167 332.256 311.621 330.758C313.075 329.254 313.825 327.343 313.825 325.053V303.699H307.208C307.004 303.699 306.502 304.193 306.502 304.405C306.502 304.616 307.004 305.11 307.208 305.11H312.246V325.055V325.051ZM264.019 332.829C264.231 332.829 264.688 332.335 264.688 332.124C264.688 331.913 264.231 331.462 264.019 331.462H258.981V305.107H264.019C264.231 305.107 264.688 304.605 264.688 304.401C264.688 304.197 264.231 303.695 264.019 303.695H252.32C252.116 303.695 251.615 304.19 251.615 304.401C251.615 304.612 252.116 305.107 252.32 305.107H257.358V331.462H252.32C252.116 331.462 251.615 331.92 251.615 332.124C251.615 332.328 252.116 332.829 252.32 332.829H264.019ZM203.767 305.107V332.829H205.381V305.107H216.506V303.697H192.643V305.107H203.768H203.767ZM147.832 305.107C149.876 305.107 151.583 305.731 152.87 307.018C154.164 308.311 154.833 309.932 154.833 311.931C154.833 313.93 154.164 315.558 152.87 316.851C151.583 318.137 149.874 318.762 147.832 318.762H140.168V305.105H147.832V305.107ZM135.464 303.697C135.26 303.697 134.758 304.192 134.758 304.403C134.758 304.614 135.26 305.108 135.464 305.108H138.546V332.831H140.168V320.177H147.416C147.788 320.89 148.246 321.761 148.87 322.801C149.495 323.804 150.536 325.301 152.078 327.335C153.62 329.379 155.285 331.253 157.073 332.998C157.364 332.998 158.156 332.25 158.156 331.958C154.665 328.462 151.662 324.508 149.126 320.096C151.293 319.806 153.037 318.933 154.412 317.435C155.787 315.938 156.448 314.099 156.448 311.933C156.448 309.562 155.619 307.565 153.998 306.024C152.377 304.482 150.333 303.697 147.876 303.697H135.464ZM83.6591 331.55C79.9079 331.55 76.8239 330.301 74.4546 327.851C72.0764 325.351 70.9129 322.153 70.9129 318.285C70.9129 314.417 72.0764 311.22 74.4546 308.763C76.8257 306.27 79.9079 305.021 83.6591 305.021C87.4102 305.021 90.4062 306.27 92.7773 308.763C95.1555 311.22 96.3613 314.419 96.3613 318.285C96.3613 322.151 95.1537 325.351 92.7773 327.851C90.4062 330.301 87.3609 331.55 83.6591 331.55ZM83.6591 303.574C79.4925 303.574 76.0318 304.941 73.328 307.725C70.6224 310.509 69.2494 314.006 69.2494 318.287C69.2494 322.568 70.6242 326.065 73.328 328.849C76.0335 331.633 79.4943 333 83.6591 333C87.8239 333 91.2353 331.633 93.9479 328.849C96.6535 326.065 98.0195 322.568 98.0195 318.287C98.0195 314.006 96.6517 310.509 93.9479 307.725C91.2353 304.941 87.7817 303.574 83.6591 303.574ZM29.8121 312.339C29.8121 312.55 30.3067 313.045 30.5179 313.045C30.7292 313.045 31.2238 312.55 31.2238 312.339V307.6C28.6063 304.896 25.1456 303.574 20.8998 303.574C16.654 303.574 13.2355 304.941 10.5247 307.725C7.8191 310.509 6.45312 314.006 6.45312 318.287C6.45312 322.568 7.82086 326.065 10.5247 328.849C13.2373 331.633 16.7332 333 21.023 333C25.3128 333 28.9407 331.59 31.6375 328.726C31.6375 328.391 30.9756 327.723 30.6852 327.723C28.2718 330.26 25.0646 331.554 21.023 331.554C17.1908 331.554 14.0646 330.304 11.6952 327.855C9.3171 325.398 8.11131 322.199 8.11131 318.289C8.11131 314.379 9.31886 311.18 11.6952 308.723C14.0663 306.273 17.1926 305.024 20.9807 305.024C24.5224 305.024 27.4814 306.106 29.8156 308.265V312.343L29.8121 312.339Z" fill="#101B17"/>
</svg>
