<svg width="16" height="16" viewBox="0 0 16 16" fill="none" xmlns="http://www.w3.org/2000/svg">
<path d="M8.00637 1.3457C4.34304 1.3457 1.3457 4.34304 1.3457 8.00637C1.3457 11.669 4.34304 14.6664 8.00637 14.6664C11.669 14.6664 14.6664 11.669 14.6664 8.00637C14.6664 4.34304 11.7024 1.3457 8.00637 1.3457ZM11.0697 10.9697C10.937 11.169 10.7037 11.2364 10.503 11.1037C8.93704 10.137 6.97237 9.93704 4.64104 10.4697C4.40904 10.5377 4.20904 10.371 4.14237 10.1704C4.07504 9.93704 4.2417 9.73837 4.44237 9.67104C6.97237 9.10437 9.17104 9.33837 10.9024 10.4044C11.1357 10.5037 11.169 10.7697 11.0697 10.9697ZM11.8697 9.13837C11.7024 9.37104 11.403 9.47104 11.169 9.30437C9.37104 8.20704 6.64104 7.87237 4.54304 8.53904C4.2777 8.60637 3.97637 8.47237 3.91037 8.20704C3.84304 7.93904 3.97704 7.63904 4.24304 7.57237C6.6737 6.84037 9.6717 7.20704 11.7357 8.47304C11.9357 8.57237 12.0357 8.90504 11.8697 9.13837ZM11.9357 7.27237C9.80437 6.0077 6.24104 5.87437 4.20904 6.50837C4.05451 6.5529 3.88876 6.53618 3.74624 6.46169C3.60371 6.3872 3.49536 6.26066 3.4437 6.10837C3.39838 5.95365 3.41464 5.78741 3.48906 5.6444C3.56349 5.50139 3.69032 5.39269 3.84304 5.34104C6.2077 4.6417 10.1044 4.77437 12.569 6.2417C12.8684 6.4077 12.9684 6.8077 12.8017 7.10704C12.635 7.34037 12.2357 7.43904 11.9357 7.27237Z" fill="white"/>
</svg>
